<mxfile host="app.diagrams.net" modified="2024-04-29T15:14:17.341Z" agent="Mozilla/5.0 (Macintosh; Intel Mac OS X 10_15_7) AppleWebKit/537.36 (KHTML, like Gecko) Chrome/122.0.0.0 Safari/537.36" etag="gt6Qs2eEeCD_LqlCNFPv" version="24.0.7" type="github">
  <diagram name="Page-1" id="14XZ083jBM_8IBByIj3f">
    <mxGraphModel dx="1306" dy="670" grid="1" gridSize="10" guides="1" tooltips="1" connect="1" arrows="1" fold="1" page="1" pageScale="1" pageWidth="850" pageHeight="1100" math="0" shadow="0">
      <root>
        <mxCell id="0" />
        <mxCell id="1" parent="0" />
        <mxCell id="D42yW-FFIJCMqk-TRc6Z-22" style="edgeStyle=orthogonalEdgeStyle;rounded=0;orthogonalLoop=1;jettySize=auto;html=1;fontSize=14;" parent="1" edge="1">
          <mxGeometry relative="1" as="geometry">
            <mxPoint x="373.5" y="360" as="sourcePoint" />
            <mxPoint x="370" y="468" as="targetPoint" />
            <Array as="points">
              <mxPoint x="410" y="360" />
              <mxPoint x="410" y="468" />
            </Array>
          </mxGeometry>
        </mxCell>
        <mxCell id="D42yW-FFIJCMqk-TRc6Z-23" value="2. redirect to&amp;nbsp;https://{auth0_domain}/authorize" style="edgeLabel;html=1;align=center;verticalAlign=middle;resizable=0;points=[];fontSize=14;" parent="D42yW-FFIJCMqk-TRc6Z-22" vertex="1" connectable="0">
          <mxGeometry x="-0.0703" relative="1" as="geometry">
            <mxPoint x="40" y="4" as="offset" />
          </mxGeometry>
        </mxCell>
        <mxCell id="oPMAS6JOaMVU0MQ8NKXL-3" style="edgeStyle=orthogonalEdgeStyle;rounded=0;orthogonalLoop=1;jettySize=auto;html=1;endArrow=none;endFill=0;startArrow=classic;startFill=1;fontSize=14;exitX=0.997;exitY=0.423;exitDx=0;exitDy=0;exitPerimeter=0;" parent="1" source="D42yW-FFIJCMqk-TRc6Z-1" edge="1">
          <mxGeometry relative="1" as="geometry">
            <mxPoint x="640" y="301.5" as="targetPoint" />
          </mxGeometry>
        </mxCell>
        <mxCell id="oPMAS6JOaMVU0MQ8NKXL-5" value="8. return access, id &amp;amp; &lt;br&gt;refresh tokens" style="edgeLabel;html=1;align=center;verticalAlign=middle;resizable=0;points=[];fontSize=14;" parent="oPMAS6JOaMVU0MQ8NKXL-3" vertex="1" connectable="0">
          <mxGeometry x="0.2461" relative="1" as="geometry">
            <mxPoint x="-24" y="-11" as="offset" />
          </mxGeometry>
        </mxCell>
        <mxCell id="D42yW-FFIJCMqk-TRc6Z-1" value="Springboot &lt;br&gt;Webapp" style="whiteSpace=wrap;html=1;aspect=fixed;labelBackgroundColor=none;fontSize=14;" parent="1" vertex="1">
          <mxGeometry x="200.5" y="230" width="163" height="163" as="geometry" />
        </mxCell>
        <mxCell id="D42yW-FFIJCMqk-TRc6Z-5" style="edgeStyle=orthogonalEdgeStyle;rounded=0;orthogonalLoop=1;jettySize=auto;html=1;labelBackgroundColor=none;fontColor=default;fontSize=14;" parent="1" edge="1">
          <mxGeometry relative="1" as="geometry">
            <mxPoint x="70" y="485" as="sourcePoint" />
            <mxPoint x="200" y="485" as="targetPoint" />
          </mxGeometry>
        </mxCell>
        <mxCell id="D42yW-FFIJCMqk-TRc6Z-6" value="1. Access webapp" style="edgeLabel;html=1;align=center;verticalAlign=middle;resizable=0;points=[];fontSize=14;labelBackgroundColor=none;" parent="D42yW-FFIJCMqk-TRc6Z-5" vertex="1" connectable="0">
          <mxGeometry x="0.0914" y="2" relative="1" as="geometry">
            <mxPoint x="-11" y="-6" as="offset" />
          </mxGeometry>
        </mxCell>
        <mxCell id="D42yW-FFIJCMqk-TRc6Z-34" style="edgeStyle=orthogonalEdgeStyle;rounded=0;orthogonalLoop=1;jettySize=auto;html=1;entryX=0;entryY=0.75;entryDx=0;entryDy=0;fontSize=14;" parent="1" target="D42yW-FFIJCMqk-TRc6Z-15" edge="1">
          <mxGeometry relative="1" as="geometry">
            <mxPoint x="60" y="530" as="sourcePoint" />
          </mxGeometry>
        </mxCell>
        <mxCell id="D42yW-FFIJCMqk-TRc6Z-35" value="4. enter user credentials" style="edgeLabel;html=1;align=center;verticalAlign=middle;resizable=0;points=[];fontSize=14;" parent="D42yW-FFIJCMqk-TRc6Z-34" vertex="1" connectable="0">
          <mxGeometry x="0.2304" y="-2" relative="1" as="geometry">
            <mxPoint x="-12" y="11" as="offset" />
          </mxGeometry>
        </mxCell>
        <mxCell id="D42yW-FFIJCMqk-TRc6Z-4" value="Actor" style="shape=umlActor;verticalLabelPosition=bottom;verticalAlign=top;html=1;outlineConnect=0;labelBackgroundColor=none;fontSize=14;" parent="1" vertex="1">
          <mxGeometry x="20" y="465" width="30" height="60" as="geometry" />
        </mxCell>
        <mxCell id="D42yW-FFIJCMqk-TRc6Z-26" style="edgeStyle=orthogonalEdgeStyle;rounded=0;orthogonalLoop=1;jettySize=auto;html=1;exitX=1.014;exitY=0.371;exitDx=0;exitDy=0;exitPerimeter=0;entryX=0.118;entryY=0.982;entryDx=0;entryDy=0;entryPerimeter=0;fontSize=14;" parent="1" source="D42yW-FFIJCMqk-TRc6Z-15" edge="1">
          <mxGeometry relative="1" as="geometry">
            <mxPoint x="450" y="490" as="sourcePoint" />
            <mxPoint x="658.5260000000001" y="377.174" as="targetPoint" />
          </mxGeometry>
        </mxCell>
        <mxCell id="D42yW-FFIJCMqk-TRc6Z-28" style="edgeStyle=orthogonalEdgeStyle;rounded=0;orthogonalLoop=1;jettySize=auto;html=1;endArrow=none;endFill=0;startArrow=classic;startFill=1;entryX=0.25;entryY=1;entryDx=0;entryDy=0;entryPerimeter=0;fontSize=14;" parent="1" source="D42yW-FFIJCMqk-TRc6Z-15" edge="1">
          <mxGeometry relative="1" as="geometry">
            <mxPoint x="679.25" y="380" as="targetPoint" />
            <Array as="points">
              <mxPoint x="681" y="525" />
              <mxPoint x="681" y="380" />
            </Array>
          </mxGeometry>
        </mxCell>
        <mxCell id="D42yW-FFIJCMqk-TRc6Z-29" value="3. Display Cognito hosted UI login page" style="edgeLabel;html=1;align=center;verticalAlign=middle;resizable=0;points=[];fontSize=14;" parent="D42yW-FFIJCMqk-TRc6Z-28" vertex="1" connectable="0">
          <mxGeometry x="-0.008" y="1" relative="1" as="geometry">
            <mxPoint as="offset" />
          </mxGeometry>
        </mxCell>
        <mxCell id="D42yW-FFIJCMqk-TRc6Z-37" style="edgeStyle=orthogonalEdgeStyle;rounded=0;orthogonalLoop=1;jettySize=auto;html=1;exitX=1;exitY=0.75;exitDx=0;exitDy=0;entryX=0.5;entryY=1;entryDx=0;entryDy=0;entryPerimeter=0;fontSize=14;" parent="1" source="D42yW-FFIJCMqk-TRc6Z-15" edge="1">
          <mxGeometry relative="1" as="geometry">
            <mxPoint x="718.5" y="380" as="targetPoint" />
          </mxGeometry>
        </mxCell>
        <mxCell id="D42yW-FFIJCMqk-TRc6Z-38" value="5. submit user credentials" style="edgeLabel;html=1;align=center;verticalAlign=middle;resizable=0;points=[];fontSize=14;" parent="D42yW-FFIJCMqk-TRc6Z-37" vertex="1" connectable="0">
          <mxGeometry x="-0.2254" y="2" relative="1" as="geometry">
            <mxPoint y="1" as="offset" />
          </mxGeometry>
        </mxCell>
        <mxCell id="D42yW-FFIJCMqk-TRc6Z-44" style="edgeStyle=orthogonalEdgeStyle;rounded=0;orthogonalLoop=1;jettySize=auto;html=1;fontSize=14;" parent="1" source="D42yW-FFIJCMqk-TRc6Z-15" edge="1">
          <mxGeometry relative="1" as="geometry">
            <mxPoint x="285" y="392" as="targetPoint" />
          </mxGeometry>
        </mxCell>
        <mxCell id="D42yW-FFIJCMqk-TRc6Z-15" value="Browser" style="whiteSpace=wrap;html=1;aspect=fixed;labelBackgroundColor=none;verticalAlign=bottom;fontSize=14;" parent="1" vertex="1">
          <mxGeometry x="200" y="440" width="170" height="170" as="geometry" />
        </mxCell>
        <mxCell id="D42yW-FFIJCMqk-TRc6Z-36" value="" style="dashed=0;outlineConnect=0;html=1;align=center;labelPosition=center;verticalLabelPosition=bottom;verticalAlign=top;shape=mxgraph.weblogos.chrome;fontSize=14;" parent="1" vertex="1">
          <mxGeometry x="217" y="460" width="130" height="120" as="geometry" />
        </mxCell>
        <mxCell id="D42yW-FFIJCMqk-TRc6Z-42" value="" style="endArrow=none;html=1;rounded=0;edgeStyle=orthogonalEdgeStyle;entryX=0.75;entryY=1;entryDx=0;entryDy=0;entryPerimeter=0;endFill=0;startArrow=classic;startFill=1;fontSize=14;" parent="1" edge="1">
          <mxGeometry width="50" height="50" relative="1" as="geometry">
            <mxPoint x="370" y="590" as="sourcePoint" />
            <mxPoint x="757.75" y="380" as="targetPoint" />
          </mxGeometry>
        </mxCell>
        <mxCell id="D42yW-FFIJCMqk-TRc6Z-43" value="6. redirect to spring webapp with authorization code" style="edgeLabel;html=1;align=center;verticalAlign=middle;resizable=0;points=[];fontSize=14;" parent="D42yW-FFIJCMqk-TRc6Z-42" vertex="1" connectable="0">
          <mxGeometry x="-0.1643" relative="1" as="geometry">
            <mxPoint x="-10" as="offset" />
          </mxGeometry>
        </mxCell>
        <mxCell id="D42yW-FFIJCMqk-TRc6Z-45" value="" style="endArrow=classic;html=1;rounded=0;exitX=1.009;exitY=0.117;exitDx=0;exitDy=0;exitPerimeter=0;fontSize=14;" parent="1" source="D42yW-FFIJCMqk-TRc6Z-1" edge="1">
          <mxGeometry width="50" height="50" relative="1" as="geometry">
            <mxPoint x="420" y="250" as="sourcePoint" />
            <mxPoint x="641" y="247" as="targetPoint" />
          </mxGeometry>
        </mxCell>
        <mxCell id="D42yW-FFIJCMqk-TRc6Z-46" value="7.&amp;nbsp;https://{auth0_domain}/oauth/token&lt;br&gt;(clientid,secret,authorization code)" style="edgeLabel;html=1;align=center;verticalAlign=middle;resizable=0;points=[];fontSize=14;" parent="D42yW-FFIJCMqk-TRc6Z-45" vertex="1" connectable="0">
          <mxGeometry x="-0.1374" y="3" relative="1" as="geometry">
            <mxPoint x="26" y="-5" as="offset" />
          </mxGeometry>
        </mxCell>
        <mxCell id="oPMAS6JOaMVU0MQ8NKXL-7" value="" style="endArrow=classic;html=1;rounded=0;exitX=0.138;exitY=0.994;exitDx=0;exitDy=0;exitPerimeter=0;entryX=0.135;entryY=-0.006;entryDx=0;entryDy=0;entryPerimeter=0;fontSize=14;" parent="1" source="D42yW-FFIJCMqk-TRc6Z-1" target="D42yW-FFIJCMqk-TRc6Z-15" edge="1">
          <mxGeometry relative="1" as="geometry">
            <mxPoint x="50" y="400" as="sourcePoint" />
            <mxPoint x="150" y="400" as="targetPoint" />
          </mxGeometry>
        </mxCell>
        <mxCell id="oPMAS6JOaMVU0MQ8NKXL-8" value="10. Display home page" style="edgeLabel;resizable=0;html=1;align=center;verticalAlign=middle;fontSize=14;" parent="oPMAS6JOaMVU0MQ8NKXL-7" connectable="0" vertex="1">
          <mxGeometry relative="1" as="geometry">
            <mxPoint x="-23" as="offset" />
          </mxGeometry>
        </mxCell>
        <mxCell id="oPMAS6JOaMVU0MQ8NKXL-17" value="" style="endArrow=classic;html=1;rounded=0;edgeStyle=orthogonalEdgeStyle;exitX=0.25;exitY=0;exitDx=0;exitDy=0;entryX=0.75;entryY=0;entryDx=0;entryDy=0;" parent="1" source="D42yW-FFIJCMqk-TRc6Z-1" target="D42yW-FFIJCMqk-TRc6Z-1" edge="1">
          <mxGeometry relative="1" as="geometry">
            <mxPoint x="260" y="120" as="sourcePoint" />
            <mxPoint x="320" y="220" as="targetPoint" />
            <Array as="points">
              <mxPoint x="241" y="170" />
              <mxPoint x="323" y="170" />
            </Array>
          </mxGeometry>
        </mxCell>
        <mxCell id="oPMAS6JOaMVU0MQ8NKXL-18" value="9. validate tokens" style="edgeLabel;resizable=0;html=1;align=center;verticalAlign=middle;fontSize=14;" parent="oPMAS6JOaMVU0MQ8NKXL-17" connectable="0" vertex="1">
          <mxGeometry relative="1" as="geometry">
            <mxPoint x="3" y="-10" as="offset" />
          </mxGeometry>
        </mxCell>
        <mxCell id="KBEsFWk-Gzw7zOln8TO8-1" value="" style="shape=image;verticalLabelPosition=bottom;labelBackgroundColor=default;verticalAlign=top;aspect=fixed;imageAspect=0;image=data:image/png,iVBORw0KGgoAAAANSUhEUgAAAWIAAACOCAMAAAA8c/IFAAAAh1BMVEX///8AAADQ0NDt7e1PT09FRUWioqLx8fEQEBDe3t6bm5tnZ2etra1vb2+6urrn5+f4+Pg2NjYdHR3Dw8O0tLTY2NhdXV2QkJA8PDzp6em7u7vKysrh4eGqqqpDQ0N0dHQoKChTU1OFhYWRkZEtLS0MDAwYGBh9fX1ra2siIiKGhoZhYWE3Nzd1odbjAAAP/ElEQVR4nO1d6bqyOg8VRFG2A26cccJxq+/9X98nQyFp0xYUh/PJ+nGe92zL0EVIkzQJtRqA3bB0GOsGrNxaBTmGhg7jiXbI/N2z+GhctfwNTe2Qn3fP4qOhpc9w3bNuyNF+9zQ+GD0tw1atttYO8t49jw/Gj5a9Za3maQd13z2PD4aWPKNeq7kt3aDfyqaQQS+fQThML+v+u2fysdBr2WY4TP8kTu+eyafC3Wi5W0QDtcOMN8/kY6G3eBvxQL31bL53Jh+Lk5Y5Jx6ot+0qTUHC3WuZaycjtQMrTUFipOVtw4ZWmuI+7LS8OWyoPlq0fedMcsH2fAZv9Nip6l5neUOnt9AM/NXy1k7PqR26f+ymXwC4uI/vP02/iV7p6cSX+10LLW2/2eCxdvCDgvF8QIrvjg36hMrcOLIwmKNlbZIN7hQZ/JkogeJRQzL5HT0+tz0Roq8dPL3vrl+Hhyl2FYGEFhVC0OuJAVQysudHPpB3YeQ0Uyz5Hx+l2D8qp38Rj2hqOUNGwlI73BGv8Wog3cf/+CDFWvcrEJa9QMsZMnX1NsWg+G2XDSg2v/yPj1GsX4yMFXeIXrnu8VOZag/oF77vsvE8ivUhBCPaIYLQPxUu7KBXLO/XFE+jWO8IE5TpXWJujdSL/fs1xdMo1kd9YwzBMbZ+OH8ZvU2hcyefjmdRLIQkx52RXZv5TcHIqGcH6YMOa/46elelWZyUcvEkink10c2IHHLy/Zcdpd+OEzbu29pDLP6QV+NJFHPRA5T85P7hH7M4gpYuIgD8+TbFcyjmNof4sC2W1oD9ea5lS9ATeYKfgkf1YjyH4gDNUfSU8SLFFqSuli0iwUdvuTwQIywFT6EYm1JEtAuHIhLZzLFRRMXn9AHmOnGUgPps0W7nGlkUd1PsKnJttnCCG2ogMgQO8QizocGUCGrcTjXVHdfTcGA6wSYxdI6D65KKMbvLToolGYjtgAFJ7Mn3zRCQjePIjOEnypOm2B1Ogs3v4fC7txx6cwwJVoccgsQsXg3XhKYtA7ur4ke3xy2+0VwFhYQsdjJ6J05ZY+XHD4qi2LPwyJN4QbTYHeipITGOzz019k/YzlxMFRvR9k4SCxxwgqGnGKbYDcVj8lPcJrypNa/BLvBXSYwAKd5zeLlIP5e+SxGFO2XJbT1FsLWBvMJiFD8ixbT7deDeKyTnM8n00PsZSm+8Kkxl4++CHRiKB0eoCAiowl8mxdK4Fgw04CAuH65MgZ5WuMvEsgVp3X0XWGbhP+pHm9N4IsAL+CqKFXsMUI59+INki457H8IFaZBeqaQKAjeLkxC/2voAEnjaL6JYua8GvFTkb9Fq0OW8jKMLlfOhlMTgEdhpJeywHAyDKN2LKFZGA4LsYig/mDTmR0ItjIvNkBLy/ZDJIlrGWyMPUjX3kuVu7UsHR8giPfBRDCi/gwgrmNyGx/7BHJM+VrTCese73cHOHLXbI+/EPXz2Pr1Eiqf/1EekuwvIHCPc7n5AHD0UAr8PhXn5DSrhNvA9nDI15+IlnUVC76HY9SL4MHR+9D2GxKUlyNhvm54334lbQMxtQBSLbzy9pdcUyw+suwMGYvYGHzPGbyRW/XjS/fspZsgdo4gxTk/v8mLHarBQkFxwPDImz9Duv1DLjy62IAGh0Xh9hZ4Bv/OEDKfkHl5HMZr0jNu+SP6Myly4QuRRdsgW5Wr/ZDYbQPeesq4LcaINtgOR5S4GSOGvyWv4Moq5NWj2S/2K9CAOOmSCf5jjZdGqkQW358JBizZp93DFuq6/nFyTCxIxIqizkmDzqygWauNxXVYiDug9gw/FznabgnDKUDX8q0kqFQsGLST+54F0y22z1+wSpgs8SZJ3+CKKCesggL87xCzBBDx+JLSrNrUDTY6xKrBJXw8kJym2fwdX5ETF3GMXMxSgmLhNJMZd8YyA4szW3yR/hHwcZVJsFDDf5rLHJA9GkYCzasV2zWukmNwCIwaQFC9W6Z/WbA2Ddt9BtT80zrfqKbb+WoUMQEc88jVSTAZ+oVVgiWcklsDMKEGmtTp3O0ffA+U26aZIZAmd6aVSTLq0cPFtiGeMD3KzdW4F3liYa3GoqUOLemKUjyh/svzMwz7QSykm3zUYbkgoFiwKM9MByD4I4EzUxeU5dvWUmVf6jCC3bXrOKRBMvvdTDCeWUIzs4hvFoFES9lSh3J7VaayPKgpl9w9/uZ5Kd5g+kmIUhPDtbJ0LOIW4AuP+KVMGc7X5UeVTSI0Sc6JJ2PpIitFBgWKaUHsGSin84w+loMq8omP8dpPy2jE+kmI6q3ojrJZ1+HJ2lblAuRopqZ4R5XnYW7kZneEjKSa5WoumLdqnclQ7PYd8JpdcUwgTq+VpyhLhP0Mx1fkPSd2SjpDFyJn3Jz8BsU+lWl2hBvtIikVxbJDuKzLuPDLMS96xFPJ2LOITVph4XQ+qus+kmK9BkATLTtzJbemLnjNqLG8qJJxAYr40Lp2Fi8PJn0kxt7TLQr4BT4LM+QgkJxAga3kjhAiFFXkz7pjZkvj5FKOjLJkIopuOvC+ZpsidHiQ7gaAnuIDRibN27qIYDng6xfkSrhAfceKwpNNo7hCOS6uaM/+U8e57QwhIfz7FyG2TEoTe6rlwsgyknliTLWnocKawFiBNTPjWOoop1Yc2hZ9PMWJP5rsiFmKTg/Y+iGqY9s0rmxK7IbStK9gzcP+Zest0FFNhXfTYnk8x0gEb6jDulpigkq21Rc+sSU0kAnW8aBRDy4Oy2OG0KYopfx5VwT2fYtyUlfZ+UfSFSTqVoiTEId00lP8nLKVUbaR43/D2qHuDnCQUu8jZFpUfTql8PsVYJzao4/Arnb7KhM/FKxr4irR4rUhU7onZt0gfUTcH1xJG8VR9TlzKKaf4yB94L8U4IkMZXWiPInOQiVaD3PLN6RJOLYravCVeW0cxtbHEvR+88uJEQ06xsqtKEYq51B5Rm2InAciiYNriXgf9Ff97gBczQVNQagoqCsK3RwEARjF+tFzjET5LEVOMIgX8xe6mGL+we15nYusM9avjXTwkpqTfO1eNILc74KsiWgc4msQo5gIgAyg2Qq4yphiRwUeu76aYS/fmPmPC2b9Y0Dj/A+gJWbssGCjlmgWRZZW4jIafFqeJGMVCBOWUyL9NrB+YYrTu8Fb+/RTzFirIN5xxVf7cRbEeB8uDKY3ywHxvfHI6ERy91ys0rz7/GNMMDDGCYm2dyZrcOMcU434OJ/zU76dYaEHTWEav1swUYjW8O4pU14S8koDsdUf0SdweLOpHJ53ZSAwkpRRrOlc34P1xFjseef5xHGdt7duPUjwT7+JfYzUQ93LEUCdUbYx/XX1RuvUKg2jSipGAO3p6WXaWTpeKkWR5ROo78KBkcBTTIcSHKc7RhIY4KEamK9lKqO9UkWr0jAl56bNGIsdB9u+MYmUWQYBMs2Geyz1Occ6aIDJKlGqZONjjygLBCElgKJUm1XaU+qMLM6DlQDacfOMqzLRXUExnOpVAsa7+FVxHAFu0Iot5kbNZVhwYYhpKmQCk/ELTEK6ZMOFQnhPmYQeDd7bIBkZlUJyjS4q0aWj8eCKDWt/tLkUUlIutXlWDhBtmylxbCcWuLK1lyN2mEKCi6m5LoVinK/aKYHt06G29quvbQAOEtb3RLWmT4KTrZ/iYJBTD/EeIyPlRUkzJSTkUq5cpdYloeFN+zcuTTgJwNiObIkfWN99nK0acUSOjmKRq3Bd+IcKsYii7JIprM+nCMtVVyvg3h161wkhwuXmW+T7DZoqCnDyaQD7tOuf9WcwjVtjFEVw+GH4PxfQ2XZvsg9nKkRthd/UpZwRWk9xtofsOCCttxnPmePm9FHPRBfe202i1PA7GnYyUdnaM5JMEbifIVoDfaSz87Z9uBlJxzv+yAWRzpBtmTgPnlu67OWu99B8YJVCs1Wt/5DmTXXM+WhSp8XP77Xb/jp4O9mi+dCbO0B+V/klJe7RcX8dWI7j+TeYFeo+b6jbeBMT0xAoa6A0/hOqrSndgrv06Y4ZW9bnRu5DfMi6r480XQv/dgwgl9m36PohbdiIaT+l3+UXQttB9f1f+/zxMZYPXylQrA3zfMYjKVCsJspjSsTLVSgNtvl0rU61MEOZbZaqVjD7XLW5VaqPYChFQ9E3W9LTCQ8jMt2c07a4QguW2EUW/FcpCaL7xrb8rlAs7qEy1ChUqVKhQoUKFChUqVHgCRvNer9o/yw+jQCeTECYrVruC0Nfx/Z+u/WAUo3gWgADuOA2RDwiKO86uCqFHKERxUhgenMZx8hkTZIriqbzf1ZehCMVRNdo1zmddRLn9iZxSFDcqihMUoDhqKpVlvIf1jEnH64piFQpQvOP2gJvp/1MUW7LC769DRHH7MrZOscx5k0maMtYf9np4KC7xsJgYA4qXk8nWbQ9789vfnF5vmFSgmM7YGm+/c/Pixhurr4l6IYZlVqx6YIvSm0LFgDkKi58iSc0oDstrfVg0FZ3UZI03Bt9o2xlG6884BNcw5TTqFtHNeDXQux7mmeFjQ+UclValFN8YPrbDLJNjWLjRuv03rDuMsqcOg4jnL9wjStOYzHPMl5m2aTZxk6aB2CbESh4Ho3htGL+hkeHWbfe23Hm2XbfjdmG/vu26YSOP0j/+/Pkw0gZ2ZvKpOIs1/TthQs5iKew6UQQJxTc5H6RSaqUWxTC17kyuOdB3wMgazTRiveCxRczAX+A7pz0KUlwSwY4p/kFiDow2e5hcwr0pj+9LiADqcZdo1k1Mjs8ZEHuxu2E3qaIfhGI6xj2mBLt44S+3h7y94v+fANp+9RIxXcZcdrmMf4tvpBa16kt1cZisCsdjikfrpAD3KymeMornzJYwwiLo0FxA9b2OYA/UD4naHrC298CogxTbYfRo5Qw7X0rxBkhxTPEklEePL9cfGXwhS5gBHFkSkYROhkh5Q13cMoxLuODVv5TiVDQdlmBaD621tdDpIewpAxersOll3JQnpHgSmSBZs0FAccBCG4tvpRj0i0r+eVPD/lnoMdkzsGV8NVjPwkEi3wPQCCmjuJ4q8W9VFKx5UeZzhDphQ7T1CDlNP4od6dfEhBgkHSzCvnPMNbTSnpGj9FS3cYevNNpiByPMlk4jEtHmhlBZ4UaFnZdR3a2PorgGewipA+1l4c6/m1sy6/cXbtTzKXw96lFDkP7XcXxTuytj/7cOUAAh6m4jcuHGrbUO+7iLT8BGZGGgS7oXwqphRvEHkYL1zaob3J7RZvNtRTGhFcDKVoCNtpe05oLNa7LVcJMFM63UW76mFKeNivtLfNx3oNvturXJ/tiaOlBqf7gPxmeY/wzOh9/BH2wl3NxN2AtgT3aTREzN4W63m4RKerHeH46D7e0Cw2737zujxjUb18bXlWFHe1bcLKh/nyWhhpPz64kV7sGi3W53DNn3JSs8DjfpM6X/1G+FexHHcw5VJs/z8GNZVrB76uL0P/db3/R3e/E2AAAAAElFTkSuQmCC;" parent="1" vertex="1">
          <mxGeometry x="650" y="210" width="354" height="142" as="geometry" />
        </mxCell>
      </root>
    </mxGraphModel>
  </diagram>
</mxfile>
